<svg width="350" height="350" viewBox="0 0 350 350" fill="none" xmlns="http://www.w3.org/2000/svg">
<path d="M230.142 144.114L205.887 151.966L176.92 113.576L199.081 91.4149C203.793 86.7034 211.82 87.7504 215.135 93.5089L235.726 129.63C238.867 135.214 236.075 142.194 230.142 144.114Z" stroke="black" stroke-width="2" stroke-miterlimit="10"/>
<path d="M79.7238 139.053C79.7238 139.053 66.1128 142.543 56.3408 130.154C49.3608 121.254 49.5353 107.469 55.4683 96.8242C69.2538 72.0452 114.1 69.9512 121.604 54.5952C125.443 46.7427 127.013 26.5007 134.517 25.9772C142.02 25.4537 137.832 43.0782 144.289 48.3132C150.745 53.5482 157.202 49.7092 162.437 64.1927C167.672 78.6762 165.927 92.4617 151.618 99.2672C137.309 106.073 79.7238 139.053 79.7238 139.053Z" stroke="black" stroke-width="2" stroke-miterlimit="10"/>
<path d="M81.1191 111.482C81.1191 111.482 102.757 98.3948 121.429 97.6968C135.563 97.1733 143.939 105.724 146.906 108.69C153.886 115.67 158.423 125.093 155.456 130.677" stroke="black" stroke-width="2" stroke-miterlimit="10"/>
<path d="M145.161 72.5688C145.161 72.5688 156.504 70.3003 158.423 65.4143C160.343 60.5283 159.121 57.7363 159.121 57.7363" stroke="black" stroke-width="2" stroke-miterlimit="10"/>
<path d="M153.188 85.133C153.188 85.133 161.563 82.5155 163.658 77.6295C165.752 72.7435 164.356 70.126 164.356 70.126" stroke="black" stroke-width="2" stroke-miterlimit="10"/>
<path d="M48.3135 317.392C48.3135 315.124 48.3135 313.03 48.3135 310.761C48.3135 192.799 73.7905 97.1733 139.926 97.1733C206.41 97.1733 231.538 192.799 231.713 310.761C231.713 313.03 231.713 315.298 231.713 317.392M77.455 317.392C77.2805 314.426 77.2805 311.285 77.2805 308.144C77.2805 272.022 88.274 242.532 101.71 242.532C115.147 242.532 126.14 271.848 126.14 308.144C126.14 311.285 125.966 317.392 125.966 317.392M153.886 317.392C153.886 315.124 153.886 312.855 153.886 310.587C153.886 253.176 159.121 206.585 178.49 206.759C196.115 206.934 203.095 253.176 203.095 310.587C203.095 312.855 203.095 315.124 203.095 317.392" stroke="black" stroke-width="2" stroke-miterlimit="10"/>
<path d="M139.926 97.1733C101.361 97.1733 76.5821 129.63 62.6221 180.235C64.7161 182.329 84.6091 201.873 105.549 211.296C127.362 220.894 161.389 223.162 162.436 223.337C166.101 212.867 171.336 206.759 178.316 206.759C185.296 206.759 190.531 214.088 194.37 226.478C198.558 226.303 207.457 225.431 213.216 222.639C219.847 219.498 223.162 214.088 224.035 212.518C212.692 143.939 186.343 97.1733 139.926 97.1733Z" fill="black"/>
<path d="M214.785 116.019C216.356 115.321 215.832 113.402 214.262 113.576C208.154 114.1 199.604 115.845 201.698 121.08C202.221 122.301 209.55 118.811 214.785 116.019Z" fill="black"/>
<path d="M213.041 134.167C212.692 135.563 208.853 134.516 207.631 133.818C206.41 132.946 199.255 127.362 199.953 126.664C200.302 126.315 203.094 128.583 206.759 130.328C210.423 132.073 213.215 133.12 213.041 134.167Z" fill="black"/>
<path d="M199.604 314.775V327.688C199.604 330.131 201.524 332.05 203.967 332.05H246.545C248.115 332.05 249.686 331.178 250.384 329.782C251.082 328.386 251.082 326.815 250.21 325.419C244.102 315.822 222.638 310.936 204.141 310.412C202.92 310.412 201.873 310.761 201 311.634C200.128 312.332 199.604 313.553 199.604 314.775ZM216.531 319.486H214.786V313.03C215.31 313.03 216.007 313.204 216.531 313.204V319.486ZM221.766 319.486H220.021V313.728C220.545 313.902 221.243 313.902 221.766 314.077V319.486ZM227.001 319.486H225.256V314.775C225.78 314.949 226.478 314.949 227.001 315.124V319.486ZM247.766 325.245H236.25V317.916C241.31 319.835 245.323 322.278 247.766 325.245ZM201.349 326.815H248.988C249.162 327.513 249.162 328.211 248.813 328.909C248.29 329.782 247.592 330.305 246.545 330.305H203.967C202.571 330.305 201.349 329.084 201.349 327.688V326.815Z" fill="black"/>
<path d="M122.65 314.775V327.688C122.65 330.131 124.57 332.05 127.013 332.05H169.591C171.161 332.05 172.732 331.178 173.43 329.782C174.128 328.386 174.128 326.815 173.255 325.419C167.148 315.822 145.684 310.936 127.187 310.412C125.966 310.412 124.919 310.761 124.046 311.634C123.174 312.332 122.65 313.553 122.65 314.775ZM139.577 319.486H137.832V313.03C138.355 313.03 139.053 313.204 139.577 313.204V319.486ZM144.812 319.486H143.067V313.728C143.59 313.902 144.288 313.902 144.812 314.077V319.486ZM150.047 319.486H148.302V314.775C148.825 314.949 149.523 314.949 150.047 315.124V319.486ZM170.812 325.245H159.295V317.916C164.356 319.835 168.369 322.278 170.812 325.245ZM124.395 326.815H172.034C172.208 327.513 172.208 328.211 171.859 328.909C171.336 329.782 170.638 330.305 169.591 330.305H127.013C125.617 330.305 124.395 329.084 124.395 327.688V326.815Z" fill="black"/>
<path d="M45.8701 314.775V327.688C45.8701 330.131 47.7896 332.05 50.2326 332.05H92.8106C94.3811 332.05 95.9516 331.178 96.6496 329.782C97.3476 328.386 97.3476 326.815 96.4751 325.419C92.9851 319.835 84.2601 315.822 73.9646 313.379C66.4611 311.634 58.2596 310.587 50.4071 310.412C49.1856 310.412 48.1386 310.761 47.2661 311.634C46.3936 312.332 45.8701 313.553 45.8701 314.775ZM62.7966 319.486H61.0516V313.03C61.5751 313.03 62.2731 313.204 62.7966 313.204V319.486ZM68.0316 319.486H66.2866V313.728C66.8101 313.902 67.5081 313.902 68.0316 314.077V319.486ZM73.2666 319.486H71.5216V314.775C72.0451 314.949 72.7431 314.949 73.2666 315.124V319.486ZM94.0321 325.245H82.5151V317.916C87.5756 319.835 91.5891 322.278 94.0321 325.245ZM47.6151 326.815H95.2536C95.4281 327.513 95.4281 328.211 95.0791 328.909C94.5556 329.782 93.8576 330.305 92.8106 330.305H50.2326C48.8366 330.305 47.6151 329.084 47.6151 327.688V326.815Z" fill="black"/>
<ellipse cx="18.1072" cy="16.6528" rx="18.1072" ry="16.6528" transform="matrix(0.926576 0.376107 -0.33477 0.9423 195.149 62)" fill="black"/>
<ellipse cx="18.4425" cy="16.3686" rx="18.4425" ry="16.3686" transform="matrix(0.758158 0.652071 -0.601415 0.798937 223.13 73.1899)" fill="black"/>
<ellipse cx="18.1072" cy="16.6528" rx="18.1072" ry="16.6528" transform="matrix(0.926576 0.376107 -0.33477 0.9423 232.539 93.9717)" fill="black"/>
<ellipse cx="18.1072" cy="16.6528" rx="18.1072" ry="16.6528" transform="matrix(0.926576 0.376107 -0.33477 0.9423 226.555 121.148)" fill="black"/>
</svg>
