<svg width="31" height="14" viewBox="0 0 31 14" fill="none" xmlns="http://www.w3.org/2000/svg">
<path d="M1.60579 1.50005C2.10579 1.00005 2.70579 0.800049 3.40579 0.800049C14.0058 1.10005 26.3058 3.90005 29.8058 9.40005C30.3058 10.2 30.3058 11.1 29.9058 11.9C29.5058 12.7 28.6058 13.2 27.7058 13.2H3.30579C1.90579 13.2 0.805792 12.1 0.805792 10.7V3.30005C0.805792 2.60005 1.10579 1.90005 1.60579 1.50005ZM10.5058 2.40005C10.2058 2.40005 9.80579 2.30005 9.50579 2.30005V6.00005H10.5058V2.40005ZM13.5058 2.90005C13.2058 2.80005 12.8058 2.80005 12.5058 2.70005V6.00005H13.5058V2.90005ZM16.5058 3.50005C16.2058 3.40005 15.8058 3.40005 15.5058 3.30005V6.00005H16.5058V3.50005ZM21.8058 5.10005V9.30005H28.4058C27.0058 7.60005 24.7058 6.20005 21.8058 5.10005ZM1.80579 10.7C1.80579 11.5 2.50579 12.2 3.30579 12.2H27.7058C28.3058 12.2 28.7058 11.9 29.0058 11.4C29.2058 11 29.2058 10.6 29.1058 10.2H1.80579V10.7Z" fill="#D9D9D9"/>
</svg>
