<svg width="30" height="14" viewBox="0 0 30 14" fill="none" xmlns="http://www.w3.org/2000/svg">
<path d="M1.21712 1.50005C1.71712 1.00005 2.31712 0.800049 3.01712 0.800049C13.6171 1.10005 25.9171 3.90005 29.4171 9.40005C29.9171 10.2 29.9171 11.1 29.5171 11.9C29.1171 12.7 28.2171 13.2 27.3171 13.2H2.91712C1.51712 13.2 0.41712 12.1 0.41712 10.7V3.30005C0.41712 2.60005 0.717121 1.90005 1.21712 1.50005ZM10.1171 2.40005C9.81712 2.40005 9.41712 2.30005 9.11712 2.30005V6.00005H10.1171V2.40005ZM13.1171 2.90005C12.8171 2.80005 12.4171 2.80005 12.1171 2.70005V6.00005H13.1171V2.90005ZM16.1171 3.50005C15.8171 3.40005 15.4171 3.40005 15.1171 3.30005V6.00005H16.1171V3.50005ZM21.4171 5.10005V9.30005H28.0171C26.6171 7.60005 24.3171 6.20005 21.4171 5.10005ZM1.41712 10.7C1.41712 11.5 2.11712 12.2 2.91712 12.2H27.3171C27.9171 12.2 28.3171 11.9 28.6171 11.4C28.8171 11 28.8171 10.6 28.7171 10.2H1.41712V10.7Z" fill="#C2EAB7"/>
</svg>
